<svg width="213" height="52" viewBox="0 0 213 52" xmlns="http://www.w3.org/2000/svg"><g fill="#000"><path d="M31.473 51.5L25.7596 51.5L6.41395 4.8L6.31371 4.8L6.31371 51.5L0.5 51.5L0.5 0.5L10.5236 0.5L28.5662 44.1L46.709 0.5L56.7326 0.5L56.7326 51.5L50.9189 51.5L50.9189 4.8L50.8187 4.8L31.473 51.5ZM75.6773 46.4L75.6773 5.6L95.7246 5.6C105.448 5.6 106.45 15 106.45 17.9L106.45 31.3C106.35 40.4 104.946 46.4 94.7222 46.4L75.6773 46.4L75.6773 46.4ZM69.9638 51.5L96.2258 51.5C111.562 51.5 112.364 37.4 112.364 32.3L112.364 20.1C112.264 1.3 101.037 0.5 94.8225 0.5L69.9638 0.5L69.9638 51.5ZM138.826 39.7L162.081 39.7L162.081 51.5L123.991 51.5L123.991 0.5L138.826 0.5L138.826 39.7ZM181.527 26.6L181.527 12.3L191.35 12.3C196.963 12.3 197.765 13.9 197.765 19.2C197.765 25.8 196.963 26.4 191.35 26.6L181.527 26.6L181.527 26.6ZM181.527 51.5L181.527 38.4L194.157 38.4C209.092 38.4 212.5 33.5 212.5 19.2C212.5 5.9 207.488 0.5 194.157 0.5L167.193 0.5L167.193 51.5L181.527 51.5L181.527 51.5Z"/></g></svg>